<svg width="24" height="24" viewBox="0 0 24 24" fill="none" xmlns="http://www.w3.org/2000/svg">
<path d="M20.7667 12.2916L12.6676 3.28506C12.3265 2.90498 11.6714 2.90498 11.3304 3.28506L3.23126 12.2916C3.11468 12.4209 3.03816 12.5814 3.011 12.7534C2.98384 12.9255 3.00722 13.1017 3.07828 13.2607C3.22226 13.5858 3.54442 13.7948 3.89988 13.7948H5.69968V20.0993C5.69968 20.3382 5.79449 20.5673 5.96326 20.7362C6.13202 20.9051 6.36091 21 6.59958 21H9.29928C9.53795 21 9.76684 20.9051 9.93561 20.7362C10.1044 20.5673 10.1992 20.3382 10.1992 20.0993V16.4967H13.7988V20.0993C13.7988 20.3382 13.8936 20.5673 14.0624 20.7362C14.2311 20.9051 14.46 21 14.6987 21H17.3984C17.637 21 17.8659 20.9051 18.0347 20.7362C18.2035 20.5673 18.2983 20.3382 18.2983 20.0993V13.7948H20.0981C20.2724 13.7955 20.4431 13.7455 20.5895 13.6508C20.7358 13.5561 20.8515 13.4208 20.9224 13.2615C20.9933 13.1021 21.0163 12.9256 20.9886 12.7534C20.961 12.5812 20.8839 12.4207 20.7667 12.2916Z" fill="#DFC994"/>
</svg>
